<svg xmlns="http://www.w3.org/2000/svg" width="58.5" height="58.5" viewBox="0 0 58.5 58.5">
  <g id="Icon" transform="translate(-0.75 -0.75)">
    <path id="Icon_Shape" data-name="Icon Shape" d="M29.25,58.5a29.25,29.25,0,1,1,0-58.5A28.84,28.84,0,0,1,40.388,2.208,28.064,28.064,0,0,1,49.5,8.3l-3.164,3.163a23.482,23.482,0,0,0-7.615-5.084A24.487,24.487,0,0,0,29.25,4.5,24.8,24.8,0,1,0,54,29.25a22.593,22.593,0,0,0-.7-5.625l3.654-3.587A25.3,25.3,0,0,1,58.5,29.25,29.183,29.183,0,0,1,29.25,58.5Zm0-17.086h0L27.63,39.87,16.38,28.62l3.24-3.234,9.63,9.63L54.63,9.63l3.24,3.237-27,27-1.619,1.545Z" transform="translate(0.75 0.75)" fill="#f59f0f"/>
  </g>
</svg>
